<svg width="83" height="55" viewBox="0 0 83 55" fill="none" xmlns="http://www.w3.org/2000/svg">
    <path d="M18.34 23.186c4.945-4.148 6.7-7.073 6.7-12.018C25.04 5.478 22.01 0 12.596 0 3.184 0 .152 5.478.152 12.231h6.914c0-3.722 1.116-5.318 5.53-5.318s5.531 1.49 5.531 4.255c0 3.51-2.446 5.424-7.498 9.413L.152 29.248v6.913H24.51V29.25H11.373l6.967-6.063zM30.884 18.294H51.2V11.38H30.884v6.914zm0 10.636H51.2v-6.914H30.884v6.914zM73 14.89l8.934-7.977V0H58.642v6.913h13.614l-7.818 7.445 2.393 5.319h3.617c3.722 0 5.637 1.17 5.637 4.786 0 3.456-1.49 4.786-6.063 4.786-4.52 0-6.062-1.33-6.062-4.786h-6.914c0 6.222 3.83 11.7 12.976 11.7 9.147 0 12.976-5.478 12.976-11.169 0-7.285-5.212-10.636-9.998-10.104zM1.985 46.519H0v7.725h1.985v-3.033h2.56v3.033h1.97v-7.725h-1.97v3.007h-2.56V46.52zM10.125 54.39c1.107 0 1.824-.498 2.19-1.217h.058v1.071h1.97v-5.21c0-1.841-1.512-2.616-3.18-2.616-1.794 0-2.974.885-3.262 2.294l1.922.16c.141-.513.585-.89 1.33-.89.708 0 1.113.367 1.113 1.001v.03c0 .498-.512.564-1.814.694-1.483.141-2.814.654-2.814 2.38 0 1.528 1.058 2.303 2.487 2.303zm.595-1.479c-.639 0-1.097-.307-1.097-.895 0-.604.482-.9 1.214-1.006.453-.065 1.194-.176 1.443-.347v.82c0 .81-.648 1.428-1.56 1.428zM18.858 54.244h3.686c1.873 0 2.917-.79 2.917-2.107 0-1.016-.78-1.821-2.127-1.922 1.073-.19 1.712-.774 1.712-1.61 0-1.337-1.146-2.086-2.994-2.086h-3.194v7.725zm1.936-1.604v-1.685h1.75c.576 0 .927.337.927.885 0 .498-.351.8-.927.8h-1.75zm0-2.943v-1.539h1.258c.644 0 1.039.287 1.039.76 0 .488-.376.78-.995.78h-1.302zM30.017 54.395c1.994 0 3.247-1.207 3.345-2.983h-1.96c-.122.825-.649 1.288-1.36 1.288-.971 0-1.6-.84-1.6-2.319 0-1.458.634-2.293 1.6-2.293.76 0 1.247.518 1.36 1.287h1.96c-.088-1.785-1.4-2.957-3.355-2.957-2.272 0-3.677 1.624-3.677 3.993 0 2.35 1.38 3.984 3.687 3.984zM37.968 54.395c1.853 0 3.101-.93 3.394-2.364l-1.921-.13c-.21.588-.747.894-1.439.894-1.038 0-1.697-.709-1.697-1.86v-.006h5.1v-.588c0-2.625-1.54-3.923-3.52-3.923-2.204 0-3.633 1.614-3.633 3.998 0 2.45 1.41 3.979 3.716 3.979zm-1.663-4.793c.044-.88.693-1.585 1.614-1.585.902 0 1.527.664 1.531 1.585h-3.145zM45.665 54.244h2.077v-2.741h.776l1.848 2.741h2.467l-2.677-3.893 2.648-3.832h-2.438l-2.039 2.997h-.585V46.52h-2.077v7.725zM55.558 46.519h-1.984v7.725h1.984v-3.033h2.56v3.033h1.97v-7.725h-1.97v3.007h-2.56V46.52zM63.547 51.417V46.52h-1.984v7.725h2.062l2.687-4.914v4.914h1.98v-7.725h-2.048l-2.697 4.898zM74.95 46.519h-5.13v7.725h2.019v-6.04h3.11v-1.685zM78.064 51.417V46.52h-1.985v7.725h2.063l2.687-4.914v4.914h1.98v-7.725H80.76l-2.696 4.898z" fill="#263238"/>
</svg>
