<svg width="18" height="18" viewBox="0 0 18 18" fill="none" xmlns="http://www.w3.org/2000/svg">
    <path fill-rule="evenodd" clip-rule="evenodd" d="M1.5.667a.833.833 0 00-.833.833v15c0 .46.373.834.833.834H4c.46 0 .833-.373.833-.834V4.834h3.334V6.5h-.834c-.92 0-1.666.747-1.666 1.667v5c0 .92.746 1.667 1.666 1.667h8.334c.92 0 1.666-.746 1.666-1.667v-5c0-.92-.746-1.667-1.666-1.667h-.834V4.834H16.5c.46 0 .833-.373.833-.834V1.5A.833.833 0 0016.5.667h-15zm12.5 2.5h1.667v-.833H2.333v13.333h.834V4c0-.46.373-.833.833-.833h10zm-.833 1.667V6.5H9.833V4.834h3.334zM9 13.167h6.667v-5H7.333v5H9z" fill="#1C294D" fill-opacity=".5"/>
</svg>
