<svg width="160" height="68" viewBox="0 0 160 68" fill="none" xmlns="http://www.w3.org/2000/svg">
    <path d="M0 7.2C0 10.6 1.68 14 6.04 14c3.72 0 5.62-2.38 5.74-5.18h-2C9.44 10.98 8.76 12 6.04 12 3.16 12 2 10.62 2 7.2s1.16-4.8 4.04-4.8c2.72 0 3.4 1.02 3.74 3.18h2C11.66 2.78 9.76.4 6.04.4 1.68.4 0 3.8 0 7.2zM22.77 4h-2.42l-2.74 4.02h-1.62V4h-2v10h2v-3.98h1.62L20.35 14h2.42l-3.42-4.98L22.77 4zm8.8 0l-4.48 6.16h-.32V4h-2v10h2l4.48-6.16h.32V14h2V4h-2zm13.63 8V4h-7.24v.06c0 4.5 0 5.8-1.74 7.94h-1.06v5.2h2V14h8.04v3.2h2V12h-2zm-6.78 0c1.3-1.78 1.52-3 1.54-6h3.24v6h-4.78zm19.564-8h-2.42l-2.74 4.02h-1.62V4h-2v10h2v-3.98h1.62l2.74 3.98h2.42l-3.42-4.98L57.984 4zm9.36 8V4h-7.2v2h5.2v2.2c-.6-.6-1.38-1-2.78-1-2.44 0-3.58 1.56-3.58 3.4 0 1.84 1.14 3.4 3.58 3.4 1.4 0 2.18-.4 2.78-1v1h3.2v-2h-1.2zm-4.18 0c-1.46 0-2.18-.3-2.18-1.4 0-1.1.72-1.4 2.18-1.4 1.46 0 2.18.3 2.18 1.4 0 1.1-.72 1.4-2.18 1.4zM9.6 29H.2v10h2v-8h5.4v8h2V29zm7.382 0c-1.4 0-2.38.54-2.98 1.2V29h-2v13.2h2v-4.4c.6.66 1.58 1.2 2.98 1.2 3.24 0 4.38-2.06 4.38-5s-1.14-5-4.38-5zm-.3 8c-1.96 0-2.68-.6-2.68-3s.72-3 2.68-3c1.96 0 2.68.6 2.68 3s-.72 3-2.68 3zm13.287-8l-4.48 6.16h-.32V29h-2v10h2l4.48-6.16h.32V39h2V29h-2zm16.368 0c-1.4 0-2.38.54-2.98 1.2V29h-2v13.2h2v-4.4c.6.66 1.58 1.2 2.98 1.2 3.24 0 4.38-2.06 4.38-5s-1.14-5-4.38-5zm-.3 8c-1.96 0-2.68-.6-2.68-3s.72-3 2.68-3c1.96 0 2.68.6 2.68 3s-.72 3-2.68 3zm14.927-3.2c0-2.94-1.24-4.8-4.32-4.8s-4.32 2.06-4.32 5c0 1.78.56 5 5.08 5 .76 0 1.32 0 2.88-.4v-1.96c-1.3.36-2.08.36-2.88.36-2.18 0-2.82-.86-3-2h6.56v-1.2zm-4.32-2.8c1.58 0 2.24.54 2.32 2h-4.62c.12-1.34.8-2 2.3-2zm13.17-2h-6.84v10h2v-8h4.84v-2zm9.002 0l-4.48 6.16h-.32V29h-2v10h2l4.48-6.16h.32V39h2V29h-2zm3.801 5c0 2.94 1.54 5 4.48 5 2.62 0 4.16-1.62 4.16-3.8h-2c-.08 1.04-.5 1.8-2.06 1.8-1.86 0-2.58-.6-2.58-3s.72-3 2.58-3c1.56 0 1.98.76 2.06 1.8h2c0-2.18-1.54-3.8-4.16-3.8-2.94 0-4.48 2.06-4.48 5zm18.809-5h-9.16v2h3.58v8h2v-8h3.58v-2zm6.981 0c-1.4 0-2.38.54-2.98 1.2V29h-2v13.2h2v-4.4c.6.66 1.58 1.2 2.98 1.2 3.24 0 4.38-2.06 4.38-5s-1.14-5-4.38-5zm-.3 8c-1.96 0-2.68-.6-2.68-3s.72-3 2.68-3c1.96 0 2.68.6 2.68 3s-.72 3-2.68 3zm14.648 0v-8h-7.2v2h5.2v2.2c-.6-.6-1.38-1-2.78-1-2.44 0-3.58 1.56-3.58 3.4 0 1.84 1.14 3.4 3.58 3.4 1.4 0 2.18-.4 2.78-1v1h3.2v-2h-1.2zm-4.18 0c-1.46 0-2.18-.3-2.18-1.4 0-1.1.72-1.4 2.18-1.4 1.46 0 2.18.3 2.18 1.4 0 1.1-.72 1.4-2.18 1.4zm19.187 0h-2.4v-8h-2v8h-5.4v-8h-2v10h9.8v3.2h2V37zm8.398-8l-4.48 6.16h-.32V29h-2v10h2l4.48-6.16h.32V39h2V29h-2zm11.192 0l-4.48 6.16h-.32V29h-2v10h2l4.48-6.16h.32V39h2V29h-2zM10.24 62v-8H3v.06c0 4.5 0 5.8-1.74 7.94H.2v5.2h2V64h8.04v3.2h2V62h-2zm-6.78 0c1.3-1.78 1.52-3 1.54-6h3.24v6H3.46zm15.168 2c3.04 0 4.78-2.06 4.78-5s-1.74-5-4.78-5-4.78 2.06-4.78 5 1.74 5 4.78 5zm0-2c-2.06 0-2.78-.6-2.78-3s.72-3 2.78-3c2.06 0 2.78.6 2.78 3s-.72 3-2.78 3zm18.419-11.6h-4.64v2h2.64V64h2V50.4zm7.51 4.4c-.86 0-1.68.18-2.44.62l.42-3.02h5.24v-2h-7l-1 7.52h2c.32-.82.88-1.12 2.28-1.12 1.96 0 2.68.6 2.68 2.6s-.72 2.6-2.68 2.6c-1.44 0-2.2-.54-2.52-1.52h-2.08c.34 2.18 1.8 3.52 4.6 3.52 3.54 0 4.68-2.06 4.68-4.6 0-2.54-1.14-4.6-4.18-4.6zm10.76 4c2.64 0 4.18-1.66 4.18-4.2s-1.54-4.2-4.18-4.2c-2.64 0-4.18 1.66-4.18 4.2s1.54 4.2 4.18 4.2zm9.72-8.4h-2.12l-4.9 13.6h2.12l4.9-13.6zm-9.72 6.4c-1.46 0-2.18-.6-2.18-2.2s.72-2.2 2.18-2.2c1.46 0 2.18.6 2.18 2.2s-.72 2.2-2.18 2.2zm12.42 7.2c2.64 0 4.18-1.66 4.18-4.2s-1.54-4.2-4.18-4.2c-2.64 0-4.18 1.66-4.18 4.2s1.54 4.2 4.18 4.2zm0-2c-1.46 0-2.18-.6-2.18-2.2s.72-2.2 2.18-2.2c1.46 0 2.18.6 2.18 2.2s-.72 2.2-2.18 2.2z" fill="#1C294D" fill-opacity=".8"/>
</svg>
