<svg width="21" height="19" viewBox="0 0 21 19" fill="none" xmlns="http://www.w3.org/2000/svg">
    <path fill-rule="evenodd" clip-rule="evenodd" d="M1.125.125a1.042 1.042 0 000 2.083V1.167v1.041h1.252l2.42 10.648c.124.549.662.897 1.21.792.064.012.129.019.196.019H16.75c.434 0 .823-.27.975-.676l3.125-8.334a1.042 1.042 0 00-.975-1.407H4.75L4.224.936A1.042 1.042 0 003.208.125H1.125v1.042V.125zm4.098 5.208l1.42 6.25h9.385l2.344-6.25H5.223zm3.193 9.375a2.083 2.083 0 100 4.167 2.083 2.083 0 000-4.167zm4.167 2.084a2.083 2.083 0 114.167 0 2.083 2.083 0 01-4.167 0z" fill="#1C294D" fill-opacity=".5"/>
</svg>
