<svg width="18" height="16" viewBox="0 0 18 16" fill="none" xmlns="http://www.w3.org/2000/svg">
    <path fill-rule="evenodd" clip-rule="evenodd" d="M1.5.5a.833.833 0 100 1.667v-.834.834h1.001l1.936 8.518c.1.439.53.717.969.634.05.01.103.014.156.014H14a.833.833 0 00.78-.54l2.5-6.667A.833.833 0 0016.5 3H4.4l-.42-1.851A.833.833 0 003.166.5H1.5v.833V.5zm3.279 4.167l1.136 5h7.507l1.875-5H4.78zm2.554 7.5a1.667 1.667 0 100 3.333 1.667 1.667 0 000-3.333zm3.334 1.666a1.667 1.667 0 113.333 0 1.667 1.667 0 01-3.333 0z" fill="#FF7A00"/>
</svg>
