<svg width="18" height="18" viewBox="0 0 18 18" fill="none" xmlns="http://www.w3.org/2000/svg">
    <path fill-rule="evenodd" clip-rule="evenodd" d="M12.821.667H5.178a2.5 2.5 0 00-1.767.732L1.399 3.411A2.5 2.5 0 00.667 5.18v9.655a2.5 2.5 0 002.5 2.5h11.666a2.5 2.5 0 002.5-2.5V5.179a2.5 2.5 0 00-.732-1.768L14.59 1.4a2.5 2.5 0 00-1.768-.732zM14.833 4l-1.422-1.422a.833.833 0 00-.59-.244H5.178a.833.833 0 00-.589.244L3.167 4h11.666zm-12.5 2.5v8.334c0 .46.373.833.834.833h11.666c.46 0 .834-.373.834-.833V6.5a.833.833 0 00-.834-.833H3.167a.833.833 0 00-.834.833zM4 13.167c0-.46.373-.833.833-.833H6.5A.833.833 0 116.5 14H4.833A.833.833 0 014 13.167zm.833-3.333a.833.833 0 000 1.666h3.334a.833.833 0 000-1.666H4.833z" fill="#1C294D" fill-opacity=".5"/>
</svg>
