<svg width="12" height="18" viewBox="0 0 12 18" fill="none" xmlns="http://www.w3.org/2000/svg">
    <path fill-rule="evenodd" clip-rule="evenodd" d="M9.584 8.88L6 14.792 2.416 8.88C.677 6.012 2.697 2.31 6 2.31s5.323 3.702 3.584 6.57zm-8.536.864C-1.354 5.782 1.437.667 6 .667s7.354 5.115 4.952 9.077L6.536 17.03a.623.623 0 01-1.072 0L1.048 9.744zM6 4.773c-.888 0-1.608.735-1.608 1.642 0 .908.72 1.643 1.608 1.643.888 0 1.609-.735 1.609-1.643 0-.907-.72-1.642-1.609-1.642z" fill="#1C294D" fill-opacity=".5"/>
</svg>
