<svg width="18" height="18" viewBox="0 0 18 18" fill="none" xmlns="http://www.w3.org/2000/svg">
    <path fill-rule="evenodd" clip-rule="evenodd" d="M.667 9a8.333 8.333 0 1016.666 0A8.333 8.333 0 00.667 9zm1.666 0a6.667 6.667 0 1113.334 0A6.667 6.667 0 012.333 9zm4.167.834a.833.833 0 00-1.667 0 4.167 4.167 0 008.334 0 .833.833 0 10-1.667 0 2.5 2.5 0 11-5 0zm-.833-2.5c.46 0 .833-.373.833-.834a.833.833 0 001.667 0 1.667 1.667 0 00-3.334 0c0 .46.373.834.834.834zM11.5 6.5a.833.833 0 01-1.667 0 1.667 1.667 0 013.334 0 .833.833 0 01-1.667 0z" fill="#1C294D" fill-opacity=".5"/>
</svg>
