<svg width="197" height="68" viewBox="0 0 197 68" fill="none" xmlns="http://www.w3.org/2000/svg">
<path d="M5.38 5.8H2.4V2.4H8.4V0.4H0.4V14H5.38C8.62 14 9.76 12.24 9.76 9.9C9.76 7.56 8.62 5.8 5.38 5.8ZM5.38 12H2.4V7.8H5.38C7.04 7.8 7.76 8.3 7.76 9.9C7.76 11.5 7.04 12 5.38 12ZM20.2025 8.8C20.2025 5.86 18.9625 4 15.8825 4C12.8025 4 11.5625 6.06 11.5625 9C11.5625 10.78 12.1225 14 16.6425 14C17.4025 14 17.9625 14 19.5225 13.6V11.64C18.2225 12 17.4425 12 16.6425 12C14.4625 12 13.8225 11.14 13.6425 10H20.2025V8.8ZM15.8825 6C17.4625 6 18.1225 6.54 18.2025 8H13.5825C13.7025 6.66 14.3825 6 15.8825 6ZM21.7969 9C21.7969 11.94 23.3369 14 26.2769 14C28.8969 14 30.4369 12.38 30.4369 10.2H28.4369C28.3569 11.24 27.9369 12 26.3769 12C24.5169 12 23.7969 11.4 23.7969 9C23.7969 6.6 24.5169 6 26.3769 6C27.9369 6 28.3569 6.76 28.4369 7.8H30.4369C30.4369 5.62 28.8969 4 26.2769 4C23.3369 4 21.7969 6.06 21.7969 9ZM42.0414 4H32.6414V14H34.6414V6H40.0414V14H42.0414V4ZM54.4183 4H46.7783V5.64C46.7583 9.1 46.5783 12 44.4383 12V14C48.4183 14 48.7783 9.8 48.7983 6H52.4183V14H54.4183V4ZM64.5905 12V4H57.3905V6H62.5905V8.2C61.9905 7.6 61.2105 7.2 59.8105 7.2C57.3705 7.2 56.2305 8.76 56.2305 10.6C56.2305 12.44 57.3705 14 59.8105 14C61.2105 14 61.9905 13.6 62.5905 13V14H65.7905V12H64.5905ZM60.4105 12C58.9505 12 58.2305 11.7 58.2305 10.6C58.2305 9.5 58.9505 9.2 60.4105 9.2C61.8705 9.2 62.5905 9.5 62.5905 10.6C62.5905 11.7 61.8705 12 60.4105 12ZM75.9569 4H66.7969V6H70.3769V14H72.3769V6H75.9569V4ZM84.5433 4V8.22H79.5633V4H77.5633V14H79.5633V10.22H84.5433V14H86.5433V4H84.5433ZM93.1394 14C96.1794 14 97.9194 11.94 97.9194 9C97.9194 6.06 96.1794 4 93.1394 4C90.0994 4 88.3594 6.06 88.3594 9C88.3594 11.94 90.0994 14 93.1394 14ZM93.1394 12C91.0794 12 90.3594 11.4 90.3594 9C90.3594 6.6 91.0794 6 93.1394 6C95.1994 6 95.9194 6.6 95.9194 9C95.9194 11.4 95.1994 12 93.1394 12ZM116.959 12V4H109.719V4.06C109.719 8.56 109.719 9.86 107.979 12H106.919V17.2H108.919V14H116.959V17.2H118.959V12H116.959ZM110.179 12C111.479 10.22 111.699 9 111.719 6H114.959V12H110.179ZM125.346 14C128.386 14 130.126 11.94 130.126 9C130.126 6.06 128.386 4 125.346 4C122.306 4 120.566 6.06 120.566 9C120.566 11.94 122.306 14 125.346 14ZM125.346 12C123.286 12 122.566 11.4 122.566 9C122.566 6.6 123.286 6 125.346 6C127.406 6 128.126 6.6 128.126 9C128.126 11.4 127.406 12 125.346 12ZM132.129 9C132.129 11.94 133.669 14 136.609 14C139.229 14 140.769 12.38 140.769 10.2H138.769C138.689 11.24 138.269 12 136.709 12C134.849 12 134.129 11.4 134.129 9C134.129 6.6 134.849 6 136.709 6C138.269 6 138.689 6.76 138.769 7.8H140.769C140.769 5.62 139.229 4 136.609 4C133.669 4 132.129 6.06 132.129 9ZM150.937 4H141.777V6H145.357V14H147.357V6H150.937V4ZM160.313 12V4H153.113V6H158.313V8.2C157.713 7.6 156.933 7.2 155.533 7.2C153.093 7.2 151.953 8.76 151.953 10.6C151.953 12.44 153.093 14 155.533 14C156.933 14 157.713 13.6 158.313 13V14H161.513V12H160.313ZM156.133 12C154.673 12 153.953 11.7 153.953 10.6C153.953 9.5 154.673 9.2 156.133 9.2C157.593 9.2 158.313 9.5 158.313 10.6C158.313 11.7 157.593 12 156.133 12ZM169 8.82V8.5C170.58 8.34 171.1 7.56 171.1 6.6C171.1 5.06 170.28 4 168.18 4H163.52V14H168.18C170.56 14 171.4 12.78 171.4 11.24C171.4 9.72 170.78 8.98 169 8.82ZM165.52 6H167.96C168.88 6 169.1 6.18 169.1 6.86C169.1 7.54 168.88 7.72 167.96 7.72H165.52V6ZM167.84 12H165.52V9.72H167.84C169.06 9.72 169.4 10.02 169.4 10.86C169.4 11.7 169.06 12 167.84 12ZM180.203 4L175.723 10.16H175.403V4H173.403V14H175.403L179.883 7.84H180.203V14H182.203V4H180.203ZM194.475 4L190.695 10.78H190.375L186.595 4H184.595V14H186.595V8.76H186.915L189.235 12.68H191.835L194.155 8.76H194.475V14H196.475V4H194.475ZM5.68 33.82V33.5C7.26 33.34 7.78 32.56 7.78 31.6C7.78 30.06 6.96 29 4.86 29H0.2V39H4.86C7.24 39 8.08 37.78 8.08 36.24C8.08 34.72 7.46 33.98 5.68 33.82ZM2.2 31H4.64C5.56 31 5.78 31.18 5.78 31.86C5.78 32.54 5.56 32.72 4.64 32.72H2.2V31ZM4.52 37H2.2V34.72H4.52C5.74 34.72 6.08 35.02 6.08 35.86C6.08 36.7 5.74 37 4.52 37ZM18.2428 37V29H11.0428V31H16.2428V33.2C15.6428 32.6 14.8628 32.2 13.4628 32.2C11.0228 32.2 9.88281 33.76 9.88281 35.6C9.88281 37.44 11.0228 39 13.4628 39C14.8628 39 15.6428 38.6 16.2428 38V39H19.4428V37H18.2428ZM14.0628 37C12.6028 37 11.8828 36.7 11.8828 35.6C11.8828 34.5 12.6028 34.2 14.0628 34.2C15.5228 34.2 16.2428 34.5 16.2428 35.6C16.2428 36.7 15.5228 37 14.0628 37ZM33.05 29V37H29.25V29H27.25V37H23.45V29H21.45V39H35.05V29H33.05ZM44.243 35.4C44.243 37.34 45.383 39 48.423 39C51.263 39 52.203 37.54 52.203 36.2C52.203 35.14 51.763 34.24 50.023 34.04V33.72C51.463 33.58 51.943 32.86 51.943 31.6C51.943 30.46 50.803 29 48.363 29C45.723 29 44.583 30.66 44.583 32.2H46.583C46.583 31.2 47.303 31 48.363 31C49.223 31 49.943 31.2 49.943 32C49.943 32.84 49.323 32.94 48.663 32.94H47.783V34.94H48.663C49.323 34.94 50.203 35.04 50.203 36C50.203 36.66 49.683 37 48.423 37C46.963 37 46.243 36.66 46.243 35.4H44.243ZM62.3639 37V29H55.1639V31H60.3639V33.2C59.7639 32.6 58.9839 32.2 57.5839 32.2C55.1439 32.2 54.0039 33.76 54.0039 35.6C54.0039 37.44 55.1439 39 57.5839 39C58.9839 39 59.7639 38.6 60.3639 38V39H63.5639V37H62.3639ZM58.1839 37C56.7239 37 56.0039 36.7 56.0039 35.6C56.0039 34.5 56.7239 34.2 58.1839 34.2C59.6439 34.2 60.3639 34.5 60.3639 35.6C60.3639 36.7 59.6439 37 58.1839 37ZM74.3511 29H71.9311L69.1911 33.02H67.5711V29H65.5711V39H67.5711V35.02H69.1911L71.9311 39H74.3511L70.9311 34.02L74.3511 29ZM83.7116 37V29H76.5116V31H81.7116V33.2C81.1116 32.6 80.3316 32.2 78.9316 32.2C76.4916 32.2 75.3516 33.76 75.3516 35.6C75.3516 37.44 76.4916 39 78.9316 39C80.3316 39 81.1116 38.6 81.7116 38V39H84.9116V37H83.7116ZM79.5316 37C78.0716 37 77.3516 36.7 77.3516 35.6C77.3516 34.5 78.0716 34.2 79.5316 34.2C80.9916 34.2 81.7116 34.5 81.7116 35.6C81.7116 36.7 80.9916 37 79.5316 37ZM86.7039 35.4C86.7039 37.34 87.8439 39 90.8839 39C93.7239 39 94.6639 37.54 94.6639 36.2C94.6639 35.14 94.2239 34.24 92.4839 34.04V33.72C93.9239 33.58 94.4039 32.86 94.4039 31.6C94.4039 30.46 93.2639 29 90.8239 29C88.1839 29 87.0439 30.66 87.0439 32.2H89.0439C89.0439 31.2 89.7639 31 90.8239 31C91.6839 31 92.4039 31.2 92.4039 32C92.4039 32.84 91.7839 32.94 91.1239 32.94H90.2439V34.94H91.1239C91.7839 34.94 92.6639 35.04 92.6639 36C92.6639 36.66 92.1439 37 90.8839 37C89.4239 37 88.7039 36.66 88.7039 35.4H86.7039ZM113.252 29H103.852V39H105.852V31H111.252V39H113.252V29ZM120.634 29C119.234 29 118.254 29.54 117.654 30.2V29H115.654V42.2H117.654V37.8C118.254 38.46 119.234 39 120.634 39C123.874 39 125.014 36.94 125.014 34C125.014 31.06 123.874 29 120.634 29ZM120.334 37C118.374 37 117.654 36.4 117.654 34C117.654 31.6 118.374 31 120.334 31C122.294 31 123.014 31.6 123.014 34C123.014 36.4 122.294 37 120.334 37ZM133.621 29L129.141 35.16H128.821V29H126.821V39H128.821L133.301 32.84H133.621V39H135.621V29H133.621ZM9.6 54H0.2V64H2.2V56H7.6V64H9.6V54ZM16.1863 64C19.2263 64 20.9662 61.94 20.9662 59C20.9662 56.06 19.2263 54 16.1863 54C13.1463 54 11.4063 56.06 11.4063 59C11.4063 61.94 13.1463 64 16.1863 64ZM16.1863 62C14.1263 62 13.4063 61.4 13.4063 59C13.4063 56.6 14.1263 56 16.1863 56C18.2463 56 18.9663 56.6 18.9663 59C18.9663 61.4 18.2463 62 16.1863 62ZM31.9488 54H29.5288L26.7888 58.02H25.1688V54H23.1688V64H25.1688V60.02H26.7888L29.5288 64H31.9488L28.5288 59.02L31.9488 54ZM40.4998 54V58.6C40.4998 60.6 39.7798 61.2 38.0198 61.2C36.2598 61.2 35.5398 60.6 35.5398 58.6V54H33.5398V58.6C33.5398 61.14 34.6798 63.2 37.7198 63.2C38.9198 63.2 39.8998 62.66 40.4998 62V65.2H34.8998V67.2H42.4998V54H40.4998ZM54.307 54H44.907V64H46.907V56H52.307V64H54.307V54ZM65.4839 54H63.0639L60.3239 58.02H58.7039V54H56.7039V64H58.7039V60.02H60.3239L63.0639 64H65.4839L62.0639 59.02L65.4839 54ZM74.9095 58.8C74.9095 55.86 73.6695 54 70.5895 54C67.5095 54 66.2695 56.06 66.2695 59C66.2695 60.78 66.8295 64 71.3495 64C72.1095 64 72.6695 64 74.2295 63.6V61.64C72.9295 62 72.1495 62 71.3495 62C69.1695 62 68.5295 61.14 68.3495 60H74.9095V58.8ZM70.5895 56C72.1695 56 72.8295 56.54 72.9095 58H68.2895C68.4095 56.66 69.0895 56 70.5895 56ZM88.6863 64C91.7263 64 93.4662 61.94 93.4662 59C93.4662 56.06 91.7263 54 88.6863 54C85.6463 54 83.9063 56.06 83.9063 59C83.9063 61.94 85.6463 64 88.6863 64ZM88.6863 62C86.6263 62 85.9063 61.4 85.9063 59C85.9063 56.6 86.6263 56 88.6863 56C90.7463 56 91.4663 56.6 91.4663 59C91.4663 61.4 90.7463 62 88.6863 62ZM104.629 54H95.4688V56H99.0488V64H101.049V56H104.629V54ZM119.973 59C121.733 57.34 122.593 56.34 122.593 54.4C122.593 52.46 121.453 50.4 118.213 50.4C114.973 50.4 113.833 52.46 113.833 55H115.833C115.833 53 116.553 52.4 118.213 52.4C119.873 52.4 120.593 53 120.593 54.4C120.593 55.86 119.873 56.54 118.013 58.14L113.833 62V64H122.393V62H116.833L119.973 59ZM130.23 50.4C126.07 50.4 124.79 53.4 124.79 57.2C124.79 61 126.07 64 130.23 64C134.39 64 135.67 61 135.67 57.2C135.67 53.4 134.39 50.4 130.23 50.4ZM133.67 57.2C133.67 58.34 133.59 59.26 133.39 59.94L128.31 52.76C128.79 52.5 129.43 52.4 130.23 52.4C132.89 52.4 133.67 53.58 133.67 57.2ZM126.79 57.2C126.79 56.06 126.87 55.16 127.05 54.46L132.15 61.64C131.65 61.9 131.03 62 130.23 62C127.55 62 126.79 60.82 126.79 57.2ZM143.12 50.4C138.96 50.4 137.68 53.4 137.68 57.2C137.68 61 138.96 64 143.12 64C147.28 64 148.56 61 148.56 57.2C148.56 53.4 147.28 50.4 143.12 50.4ZM146.56 57.2C146.56 58.34 146.48 59.26 146.28 59.94L141.2 52.76C141.68 52.5 142.32 52.4 143.12 52.4C145.78 52.4 146.56 53.58 146.56 57.2ZM139.68 57.2C139.68 56.06 139.76 55.16 139.94 54.46L145.04 61.64C144.54 61.9 143.92 62 143.12 62C140.44 62 139.68 60.82 139.68 57.2ZM156.011 50.4C151.851 50.4 150.571 53.4 150.571 57.2C150.571 61 151.851 64 156.011 64C160.171 64 161.451 61 161.451 57.2C161.451 53.4 160.171 50.4 156.011 50.4ZM159.451 57.2C159.451 58.34 159.371 59.26 159.171 59.94L154.091 52.76C154.571 52.5 155.211 52.4 156.011 52.4C158.671 52.4 159.451 53.58 159.451 57.2ZM152.571 57.2C152.571 56.06 152.651 55.16 152.831 54.46L157.931 61.64C157.431 61.9 156.811 62 156.011 62C153.331 62 152.571 60.82 152.571 57.2ZM171.389 64V61.28H169.649V59.98H171.389V58.2H169.649V56.68H171.389V49.72H175.149C176.896 49.72 178.189 50.0733 179.029 50.78C179.883 51.4867 180.309 52.5133 180.309 53.86C180.309 55.22 179.849 56.2867 178.929 57.06C178.009 57.82 176.656 58.2 174.869 58.2H173.189V59.98H176.489V61.28H173.189V64H171.389ZM173.189 56.68H174.609C175.823 56.68 176.763 56.48 177.429 56.08C178.109 55.68 178.449 54.96 178.449 53.92C178.449 53.0133 178.169 52.34 177.609 51.9C177.049 51.46 176.176 51.24 174.989 51.24H173.189V56.68Z" fill="white"/>
</svg>
