<svg width="160" height="68" viewBox="0 0 160 68" fill="none" xmlns="http://www.w3.org/2000/svg">
<path d="M1.49012e-08 7.2C1.49012e-08 10.6 1.68 14 6.04 14C9.76 14 11.66 11.62 11.78 8.82H9.78C9.44 10.98 8.76 12 6.04 12C3.16 12 2 10.62 2 7.2C2 3.78 3.16 2.4 6.04 2.4C8.76 2.4 9.44 3.42 9.78 5.58H11.78C11.66 2.78 9.76 0.4 6.04 0.4C1.68 0.4 1.49012e-08 3.8 1.49012e-08 7.2ZM22.7691 4H20.3491L17.6091 8.02H15.9891V4H13.9891V14H15.9891V10.02H17.6091L20.3491 14H22.7691L19.3491 9.02L22.7691 4ZM31.5703 4L27.0903 10.16H26.7703V4H24.7703V14H26.7703L31.2503 7.84H31.5703V14H33.5703V4H31.5703ZM45.2009 12V4H37.9609V4.06C37.9609 8.56 37.9609 9.86 36.2209 12H35.1609V17.2H37.1609V14H45.2009V17.2H47.2009V12H45.2009ZM38.4209 12C39.7209 10.22 39.9409 9 39.9609 6H43.2009V12H38.4209ZM57.9839 4H55.5639L52.8239 8.02H51.2039V4H49.2039V14H51.2039V10.02H52.8239L55.5639 14H57.9839L54.5639 9.02L57.9839 4ZM67.3444 12V4H60.1444V6H65.3444V8.2C64.7444 7.6 63.9644 7.2 62.5644 7.2C60.1244 7.2 58.9844 8.76 58.9844 10.6C58.9844 12.44 60.1244 14 62.5644 14C63.9644 14 64.7444 13.6 65.3444 13V14H68.5444V12H67.3444ZM63.1644 12C61.7044 12 60.9844 11.7 60.9844 10.6C60.9844 9.5 61.7044 9.2 63.1644 9.2C64.6244 9.2 65.3444 9.5 65.3444 10.6C65.3444 11.7 64.6244 12 63.1644 12ZM9.6 29H0.2V39H2.2V31H7.6V39H9.6V29ZM16.9816 29C15.5816 29 14.6016 29.54 14.0016 30.2V29H12.0016V42.2H14.0016V37.8C14.6016 38.46 15.5816 39 16.9816 39C20.2216 39 21.3616 36.94 21.3616 34C21.3616 31.06 20.2216 29 16.9816 29ZM16.6816 37C14.7216 37 14.0016 36.4 14.0016 34C14.0016 31.6 14.7216 31 16.6816 31C18.6416 31 19.3616 31.6 19.3616 34C19.3616 36.4 18.6416 37 16.6816 37ZM29.9688 29L25.4888 35.16H25.1688V29H23.1688V39H25.1688L29.6488 32.84H29.9688V39H31.9688V29H29.9688ZM46.337 29C44.937 29 43.957 29.54 43.357 30.2V29H41.357V42.2H43.357V37.8C43.957 38.46 44.937 39 46.337 39C49.577 39 50.717 36.94 50.717 34C50.717 31.06 49.577 29 46.337 29ZM46.037 37C44.077 37 43.357 36.4 43.357 34C43.357 31.6 44.077 31 46.037 31C47.997 31 48.717 31.6 48.717 34C48.717 36.4 47.997 37 46.037 37ZM60.9642 33.8C60.9642 30.86 59.7242 29 56.6442 29C53.5642 29 52.3242 31.06 52.3242 34C52.3242 35.78 52.8842 39 57.4042 39C58.1642 39 58.7242 39 60.2842 38.6V36.64C58.9842 37 58.2042 37 57.4042 37C55.2242 37 54.5842 36.14 54.4042 35H60.9642V33.8ZM56.6442 31C58.2242 31 58.8842 31.54 58.9642 33H54.3442C54.4642 31.66 55.1442 31 56.6442 31ZM69.8134 29H62.9734V39H64.9734V31H69.8134V29ZM78.8164 29L74.3364 35.16H74.0164V29H72.0164V39H74.0164L78.4964 32.84H78.8164V39H80.8164V29H78.8164ZM82.6172 34C82.6172 36.94 84.1572 39 87.0972 39C89.7172 39 91.2572 37.38 91.2572 35.2H89.2572C89.1772 36.24 88.7572 37 87.1972 37C85.3372 37 84.6172 36.4 84.6172 34C84.6172 31.6 85.3372 31 87.1972 31C88.7572 31 89.1772 31.76 89.2572 32.8H91.2572C91.2572 30.62 89.7172 29 87.0972 29C84.1572 29 82.6172 31.06 82.6172 34ZM101.426 29H92.2656V31H95.8456V39H97.8456V31H101.426V29ZM108.407 29C107.007 29 106.027 29.54 105.427 30.2V29H103.427V42.2H105.427V37.8C106.027 38.46 107.007 39 108.407 39C111.647 39 112.787 36.94 112.787 34C112.787 31.06 111.647 29 108.407 29ZM108.107 37C106.147 37 105.427 36.4 105.427 34C105.427 31.6 106.147 31 108.107 31C110.067 31 110.787 31.6 110.787 34C110.787 36.4 110.067 37 108.107 37ZM122.755 37V29H115.555V31H120.755V33.2C120.155 32.6 119.375 32.2 117.975 32.2C115.535 32.2 114.395 33.76 114.395 35.6C114.395 37.44 115.535 39 117.975 39C119.375 39 120.155 38.6 120.755 38V39H123.955V37H122.755ZM118.575 37C117.115 37 116.395 36.7 116.395 35.6C116.395 34.5 117.115 34.2 118.575 34.2C120.035 34.2 120.755 34.5 120.755 35.6C120.755 36.7 120.035 37 118.575 37ZM137.762 37H135.362V29H133.362V37H127.962V29H125.962V39H135.762V42.2H137.762V37ZM146.16 29L141.68 35.16H141.36V29H139.36V39H141.36L145.84 32.84H146.16V39H148.16V29H146.16ZM157.352 29L152.872 35.16H152.552V29H150.552V39H152.552L157.032 32.84H157.352V39H159.352V29H157.352ZM10.24 62V54H3V54.06C3 58.56 3 59.86 1.26 62H0.2V67.2H2.2V64H10.24V67.2H12.24V62H10.24ZM3.46 62C4.76 60.22 4.98 59 5 56H8.24V62H3.46ZM18.6277 64C21.6677 64 23.4077 61.94 23.4077 59C23.4077 56.06 21.6677 54 18.6277 54C15.5877 54 13.8477 56.06 13.8477 59C13.8477 61.94 15.5877 64 18.6277 64ZM18.6277 62C16.5677 62 15.8477 61.4 15.8477 59C15.8477 56.6 16.5677 56 18.6277 56C20.6877 56 21.4077 56.6 21.4077 59C21.4077 61.4 20.6877 62 18.6277 62ZM37.047 50.4H32.407V52.4H35.047V64H37.047V50.4ZM44.5578 54.8C43.6978 54.8 42.8778 54.98 42.1178 55.42L42.5378 52.4H47.7778V50.4H40.7778L39.7778 57.92H41.7778C42.0978 57.1 42.6578 56.8 44.0578 56.8C46.0178 56.8 46.7378 57.4 46.7378 59.4C46.7378 61.4 46.0178 62 44.0578 62C42.6178 62 41.8578 61.46 41.5378 60.48H39.4578C39.7978 62.66 41.2578 64 44.0578 64C47.5978 64 48.7378 61.94 48.7378 59.4C48.7378 56.86 47.5978 54.8 44.5578 54.8ZM55.3175 58.8C57.9575 58.8 59.4975 57.14 59.4975 54.6C59.4975 52.06 57.9575 50.4 55.3175 50.4C52.6775 50.4 51.1375 52.06 51.1375 54.6C51.1375 57.14 52.6775 58.8 55.3175 58.8ZM65.0375 50.4H62.9175L58.0175 64H60.1375L65.0375 50.4ZM55.3175 56.8C53.8575 56.8 53.1375 56.2 53.1375 54.6C53.1375 53 53.8575 52.4 55.3175 52.4C56.7775 52.4 57.4975 53 57.4975 54.6C57.4975 56.2 56.7775 56.8 55.3175 56.8ZM67.7375 64C70.3775 64 71.9175 62.34 71.9175 59.8C71.9175 57.26 70.3775 55.6 67.7375 55.6C65.0975 55.6 63.5575 57.26 63.5575 59.8C63.5575 62.34 65.0975 64 67.7375 64ZM67.7375 62C66.2775 62 65.5575 61.4 65.5575 59.8C65.5575 58.2 66.2775 57.6 67.7375 57.6C69.1975 57.6 69.9175 58.2 69.9175 59.8C69.9175 61.4 69.1975 62 67.7375 62Z" fill="#1C294D" fill-opacity="0.8"/>
</svg>
