<svg width="21" height="19" viewBox="0 0 21 19" fill="none" xmlns="http://www.w3.org/2000/svg">
<path fill-rule="evenodd" clip-rule="evenodd" d="M1.12483 0.125C0.549538 0.125 0.083168 0.59137 0.083168 1.16667C0.083168 1.74196 0.549538 2.20833 1.12483 2.20833V1.16667L1.12485 2.20833H1.12489H1.12506H1.12518H1.12533H1.12551H1.12572H1.12682H1.12835H1.12927H1.12978H1.1303H1.13268H1.13548H1.13625H1.13704H1.13869H1.17875H1.32829H1.84098H2.37668L4.79657 12.8559C4.92134 13.4048 5.4585 13.7531 6.00717 13.6483C6.07058 13.6604 6.13603 13.6667 6.20296 13.6667H16.7498C17.184 13.6667 17.5727 13.3973 17.7252 12.9908L20.8502 4.65742C20.9701 4.33753 20.9256 3.97915 20.731 3.69834C20.5364 3.41753 20.2165 3.25 19.8748 3.25H4.74988L4.22393 0.935811C4.11615 0.461553 3.69452 0.125 3.20817 0.125H1.84098H1.32829H1.17875H1.17239H1.1664H1.16497H1.16356H1.1608H1.15559H1.14634H1.1453H1.14428H1.14328H1.14232H1.14137H1.14045H1.13869H1.13268H1.1303H1.12978H1.12927H1.12835H1.12572H1.12533H1.12518H1.12506H1.12489H1.12485L1.12483 1.16667V0.125ZM5.22337 5.33333L6.64382 11.5833H16.028L18.3717 5.33333H5.22337ZM8.4165 14.7083C7.26591 14.7083 6.33317 15.6411 6.33317 16.7917C6.33317 17.9423 7.26591 18.875 8.4165 18.875C9.56709 18.875 10.4998 17.9423 10.4998 16.7917C10.4998 15.6411 9.56709 14.7083 8.4165 14.7083ZM12.5832 16.7917C12.5832 15.6411 13.5159 14.7083 14.6665 14.7083C15.8171 14.7083 16.7498 15.6411 16.7498 16.7917C16.7498 17.9423 15.8171 18.875 14.6665 18.875C13.5159 18.875 12.5832 17.9423 12.5832 16.7917Z" fill="#1C294D" fill-opacity="0.5"/>
</svg>
