<svg width="17" height="14" viewBox="0 0 17 14" fill="none" xmlns="http://www.w3.org/2000/svg">
<path d="M16.9801 1.66757C16.9558 1.63853 16.9156 1.62867 16.8813 1.64451C16.373 1.87248 15.8383 2.03636 15.2876 2.13318C15.8723 1.68852 16.3079 1.07275 16.5313 0.366679C16.5421 0.332881 16.5309 0.295913 16.5036 0.273909C16.4761 0.251905 16.438 0.249088 16.4078 0.26722C15.7493 0.662065 15.0362 0.940375 14.2871 1.09476C13.6234 0.398365 12.6966 0 11.7374 0C9.78664 0 8.19977 1.60438 8.19977 3.57649C8.19977 3.81501 8.22258 4.05125 8.26785 4.28062C5.56595 4.11198 3.03956 2.80053 1.32175 0.670338C1.30417 0.64851 1.27753 0.636364 1.24967 0.63918C1.22198 0.641293 1.19726 0.657136 1.18333 0.681252C0.869927 1.22485 0.704345 1.84677 0.704345 2.47944C0.704345 3.57596 1.19709 4.60118 2.03614 5.27768C1.60416 5.22522 1.18229 5.08774 0.801848 4.87421C0.776254 4.8596 0.744391 4.85978 0.718796 4.87474C0.693201 4.88953 0.677009 4.91699 0.676312 4.94691L0.675964 4.99268C0.675964 6.56748 1.70236 7.95023 3.16266 8.40933C2.77804 8.472 2.37897 8.46777 1.98669 8.39208C1.95779 8.38662 1.92749 8.39666 1.90764 8.41919C1.88797 8.44172 1.88135 8.47323 1.89041 8.50175C2.3283 9.88362 3.54501 10.8527 4.96125 10.9734C3.77989 11.8485 2.3835 12.3095 0.908058 12.3095C0.636266 12.3095 0.362559 12.2932 0.0944243 12.2613C0.0561193 12.2569 0.0181625 12.28 0.00492982 12.3171C-0.00830282 12.3546 0.00580039 12.3965 0.038882 12.4178C1.6355 13.4531 3.48163 14 5.37791 14C11.5807 14 15.2872 8.90592 15.2872 3.98119C15.2872 3.84406 15.2846 3.70763 15.2792 3.57156C15.9483 3.07673 16.5228 2.47099 16.9859 1.76985C17.0066 1.73851 17.0044 1.69679 16.9801 1.66757Z" fill="#282F36" fill-opacity="0.3"/>
</svg>
